<mxfile host="65bd71144e">
    <diagram id="yCre9cs7YUbaj9TeL5d_" name="Seite-1">
        <mxGraphModel dx="864" dy="545" grid="1" gridSize="10" guides="1" tooltips="1" connect="1" arrows="1" fold="1" page="1" pageScale="1" pageWidth="827" pageHeight="1169" math="0" shadow="0">
            <root>
                <mxCell id="gqH6trvdXK7VxGjcqmIb-0"/>
                <mxCell id="gqH6trvdXK7VxGjcqmIb-1" parent="gqH6trvdXK7VxGjcqmIb-0"/>
                <mxCell id="gqH6trvdXK7VxGjcqmIb-2" style="edgeStyle=orthogonalEdgeStyle;html=1;exitX=1;exitY=0.5;exitDx=0;exitDy=0;entryX=0;entryY=0.5;entryDx=0;entryDy=0;endArrow=none;endFill=0;" parent="gqH6trvdXK7VxGjcqmIb-1" source="gqH6trvdXK7VxGjcqmIb-3" target="gqH6trvdXK7VxGjcqmIb-10" edge="1">
                    <mxGeometry relative="1" as="geometry"/>
                </mxCell>
                <mxCell id="gqH6trvdXK7VxGjcqmIb-3" value="&lt;&lt;stereotype&gt;&gt;&#10;Satrtzustand" style="swimlane;fontStyle=1;align=center;verticalAlign=top;childLayout=stackLayout;horizontal=1;startSize=40;horizontalStack=0;resizeParent=1;resizeParentMax=0;resizeLast=0;collapsible=1;marginBottom=0;" parent="gqH6trvdXK7VxGjcqmIb-1" vertex="1">
                    <mxGeometry x="40" y="250" width="170" height="48" as="geometry"/>
                </mxCell>
                <mxCell id="gqH6trvdXK7VxGjcqmIb-4" value="" style="line;strokeWidth=1;fillColor=none;align=left;verticalAlign=middle;spacingTop=-1;spacingLeft=3;spacingRight=3;rotatable=0;labelPosition=right;points=[];portConstraint=eastwest;" parent="gqH6trvdXK7VxGjcqmIb-3" vertex="1">
                    <mxGeometry y="40" width="170" height="8" as="geometry"/>
                </mxCell>
                <mxCell id="gqH6trvdXK7VxGjcqmIb-5" style="edgeStyle=orthogonalEdgeStyle;html=1;exitX=1;exitY=0.5;exitDx=0;exitDy=0;entryX=0;entryY=0.5;entryDx=0;entryDy=0;endArrow=none;endFill=0;" parent="gqH6trvdXK7VxGjcqmIb-1" source="gqH6trvdXK7VxGjcqmIb-6" target="gqH6trvdXK7VxGjcqmIb-28" edge="1">
                    <mxGeometry relative="1" as="geometry"/>
                </mxCell>
                <mxCell id="gqH6trvdXK7VxGjcqmIb-6" value="&lt;&lt;stereotype&gt;&gt;&#10;Endzustand" style="swimlane;fontStyle=1;align=center;verticalAlign=top;childLayout=stackLayout;horizontal=1;startSize=40;horizontalStack=0;resizeParent=1;resizeParentMax=0;resizeLast=0;collapsible=1;marginBottom=0;" parent="gqH6trvdXK7VxGjcqmIb-1" vertex="1">
                    <mxGeometry x="40" y="440" width="170" height="48" as="geometry"/>
                </mxCell>
                <mxCell id="gqH6trvdXK7VxGjcqmIb-7" value="" style="line;strokeWidth=1;fillColor=none;align=left;verticalAlign=middle;spacingTop=-1;spacingLeft=3;spacingRight=3;rotatable=0;labelPosition=right;points=[];portConstraint=eastwest;" parent="gqH6trvdXK7VxGjcqmIb-6" vertex="1">
                    <mxGeometry y="40" width="170" height="8" as="geometry"/>
                </mxCell>
                <mxCell id="gqH6trvdXK7VxGjcqmIb-8" style="edgeStyle=orthogonalEdgeStyle;html=1;exitX=0.71;exitY=-0.012;exitDx=0;exitDy=0;entryX=1;entryY=0.5;entryDx=0;entryDy=0;endArrow=none;endFill=0;exitPerimeter=0;" parent="gqH6trvdXK7VxGjcqmIb-1" source="gqH6trvdXK7VxGjcqmIb-10" target="gqH6trvdXK7VxGjcqmIb-22" edge="1">
                    <mxGeometry relative="1" as="geometry"/>
                </mxCell>
                <mxCell id="gqH6trvdXK7VxGjcqmIb-9" style="edgeStyle=orthogonalEdgeStyle;html=1;entryX=1;entryY=0.5;entryDx=0;entryDy=0;endArrow=none;endFill=0;" parent="gqH6trvdXK7VxGjcqmIb-1" source="gqH6trvdXK7VxGjcqmIb-10" target="gqH6trvdXK7VxGjcqmIb-28" edge="1">
                    <mxGeometry relative="1" as="geometry">
                        <Array as="points">
                            <mxPoint x="390" y="464"/>
                        </Array>
                    </mxGeometry>
                </mxCell>
                <mxCell id="gqH6trvdXK7VxGjcqmIb-10" value="&lt;&lt;stereotype&gt;&gt;&#10;Kontrollflusspfad" style="swimlane;fontStyle=1;align=center;verticalAlign=top;childLayout=stackLayout;horizontal=1;startSize=42;horizontalStack=0;resizeParent=1;resizeParentMax=0;resizeLast=0;collapsible=1;marginBottom=0;" parent="gqH6trvdXK7VxGjcqmIb-1" vertex="1">
                    <mxGeometry x="304" y="330" width="160" height="50" as="geometry"/>
                </mxCell>
                <mxCell id="gqH6trvdXK7VxGjcqmIb-11" value="" style="line;strokeWidth=1;fillColor=none;align=left;verticalAlign=middle;spacingTop=-1;spacingLeft=3;spacingRight=3;rotatable=0;labelPosition=right;points=[];portConstraint=eastwest;" parent="gqH6trvdXK7VxGjcqmIb-10" vertex="1">
                    <mxGeometry y="42" width="160" height="8" as="geometry"/>
                </mxCell>
                <mxCell id="gqH6trvdXK7VxGjcqmIb-12" style="edgeStyle=orthogonalEdgeStyle;html=1;entryX=0;entryY=0.5;entryDx=0;entryDy=0;endArrow=none;endFill=0;" parent="gqH6trvdXK7VxGjcqmIb-1" target="gqH6trvdXK7VxGjcqmIb-22" edge="1">
                    <mxGeometry relative="1" as="geometry">
                        <mxPoint x="417" y="200" as="sourcePoint"/>
                    </mxGeometry>
                </mxCell>
                <mxCell id="gqH6trvdXK7VxGjcqmIb-13" value="&lt;&lt;stereotype&gt;&gt;&#10;Aktion" style="swimlane;fontStyle=1;align=center;verticalAlign=top;childLayout=stackLayout;horizontal=1;startSize=40;horizontalStack=0;resizeParent=1;resizeParentMax=0;resizeLast=0;collapsible=1;marginBottom=0;" parent="gqH6trvdXK7VxGjcqmIb-1" vertex="1">
                    <mxGeometry x="304" y="130" width="160" height="74" as="geometry"/>
                </mxCell>
                <mxCell id="gqH6trvdXK7VxGjcqmIb-14" value="-Name" style="text;strokeColor=none;fillColor=none;align=left;verticalAlign=top;spacingLeft=4;spacingRight=4;overflow=hidden;rotatable=0;points=[[0,0.5],[1,0.5]];portConstraint=eastwest;" parent="gqH6trvdXK7VxGjcqmIb-13" vertex="1">
                    <mxGeometry y="40" width="160" height="26" as="geometry"/>
                </mxCell>
                <mxCell id="gqH6trvdXK7VxGjcqmIb-15" value="" style="line;strokeWidth=1;fillColor=none;align=left;verticalAlign=middle;spacingTop=-1;spacingLeft=3;spacingRight=3;rotatable=0;labelPosition=right;points=[];portConstraint=eastwest;" parent="gqH6trvdXK7VxGjcqmIb-13" vertex="1">
                    <mxGeometry y="66" width="160" height="8" as="geometry"/>
                </mxCell>
                <mxCell id="DpY1jD6nFn3hHSnzRTHS-2" style="edgeStyle=orthogonalEdgeStyle;html=1;exitX=1;exitY=0.5;exitDx=0;exitDy=0;entryX=0.27;entryY=-0.007;entryDx=0;entryDy=0;entryPerimeter=0;endArrow=none;endFill=0;" parent="gqH6trvdXK7VxGjcqmIb-1" source="gqH6trvdXK7VxGjcqmIb-17" target="gqH6trvdXK7VxGjcqmIb-10" edge="1">
                    <mxGeometry relative="1" as="geometry"/>
                </mxCell>
                <mxCell id="DpY1jD6nFn3hHSnzRTHS-3" style="edgeStyle=orthogonalEdgeStyle;html=1;endArrow=none;endFill=0;" parent="gqH6trvdXK7VxGjcqmIb-1" source="gqH6trvdXK7VxGjcqmIb-17" edge="1">
                    <mxGeometry relative="1" as="geometry">
                        <mxPoint x="347.0000000000001" y="200" as="targetPoint"/>
                    </mxGeometry>
                </mxCell>
                <mxCell id="gqH6trvdXK7VxGjcqmIb-17" value="" style="triangle;aspect=fixed;fillColor=#000000;rotation=90;" parent="gqH6trvdXK7VxGjcqmIb-1" vertex="1">
                    <mxGeometry x="344" y="267" width="6" height="12" as="geometry"/>
                </mxCell>
                <mxCell id="gqH6trvdXK7VxGjcqmIb-19" style="edgeStyle=orthogonalEdgeStyle;html=1;exitX=0.5;exitY=1;exitDx=0;exitDy=0;entryX=1.1;entryY=0.422;entryDx=0;entryDy=0;entryPerimeter=0;endArrow=none;endFill=0;" parent="gqH6trvdXK7VxGjcqmIb-1" source="gqH6trvdXK7VxGjcqmIb-17" target="gqH6trvdXK7VxGjcqmIb-17" edge="1">
                    <mxGeometry relative="1" as="geometry"/>
                </mxCell>
                <mxCell id="gqH6trvdXK7VxGjcqmIb-20" value="ausgehender&lt;br/&gt;&lt;br&gt;Kontrollfluss" style="text;html=1;align=center;verticalAlign=middle;resizable=0;points=[];autosize=1;strokeColor=none;fillColor=none;" parent="gqH6trvdXK7VxGjcqmIb-1" vertex="1">
                    <mxGeometry x="260" y="229" width="90" height="50" as="geometry"/>
                </mxCell>
                <mxCell id="gqH6trvdXK7VxGjcqmIb-21" value="0..1" style="text;html=1;align=center;verticalAlign=middle;resizable=0;points=[];autosize=1;strokeColor=none;fillColor=none;" parent="gqH6trvdXK7VxGjcqmIb-1" vertex="1">
                    <mxGeometry x="350" y="204" width="40" height="20" as="geometry"/>
                </mxCell>
                <mxCell id="gqH6trvdXK7VxGjcqmIb-22" value="" style="triangle;aspect=fixed;fillColor=#000000;rotation=90;" parent="gqH6trvdXK7VxGjcqmIb-1" vertex="1">
                    <mxGeometry x="414" y="267" width="6" height="12" as="geometry"/>
                </mxCell>
                <mxCell id="gqH6trvdXK7VxGjcqmIb-23" value="eingehender&lt;br/&gt;&lt;br&gt;Kontrollfluss" style="text;html=1;align=center;verticalAlign=middle;resizable=0;points=[];autosize=1;strokeColor=none;fillColor=none;" parent="gqH6trvdXK7VxGjcqmIb-1" vertex="1">
                    <mxGeometry x="430" y="235" width="80" height="50" as="geometry"/>
                </mxCell>
                <mxCell id="gqH6trvdXK7VxGjcqmIb-24" value="1" style="text;html=1;align=center;verticalAlign=middle;resizable=0;points=[];autosize=1;strokeColor=none;fillColor=none;" parent="gqH6trvdXK7VxGjcqmIb-1" vertex="1">
                    <mxGeometry x="420" y="310" width="20" height="20" as="geometry"/>
                </mxCell>
                <mxCell id="gqH6trvdXK7VxGjcqmIb-25" value="1" style="text;html=1;align=center;verticalAlign=middle;resizable=0;points=[];autosize=1;strokeColor=none;fillColor=none;" parent="gqH6trvdXK7VxGjcqmIb-1" vertex="1">
                    <mxGeometry x="350" y="310" width="20" height="20" as="geometry"/>
                </mxCell>
                <mxCell id="gqH6trvdXK7VxGjcqmIb-26" value="0..1" style="text;html=1;align=center;verticalAlign=middle;resizable=0;points=[];autosize=1;strokeColor=none;fillColor=none;" parent="gqH6trvdXK7VxGjcqmIb-1" vertex="1">
                    <mxGeometry x="420" y="204" width="40" height="20" as="geometry"/>
                </mxCell>
                <mxCell id="gqH6trvdXK7VxGjcqmIb-27" value="1" style="text;html=1;align=center;verticalAlign=middle;resizable=0;points=[];autosize=1;strokeColor=none;fillColor=none;" parent="gqH6trvdXK7VxGjcqmIb-1" vertex="1">
                    <mxGeometry x="390" y="380" width="20" height="20" as="geometry"/>
                </mxCell>
                <mxCell id="gqH6trvdXK7VxGjcqmIb-28" value="" style="triangle;aspect=fixed;fillColor=#000000;" parent="gqH6trvdXK7VxGjcqmIb-1" vertex="1">
                    <mxGeometry x="290" y="458" width="6" height="12" as="geometry"/>
                </mxCell>
                <mxCell id="gqH6trvdXK7VxGjcqmIb-29" value="eingehender&lt;br/&gt;&lt;br&gt;Kontrollfluss" style="text;html=1;align=center;verticalAlign=middle;resizable=0;points=[];autosize=1;strokeColor=none;fillColor=none;" parent="gqH6trvdXK7VxGjcqmIb-1" vertex="1">
                    <mxGeometry x="253" y="470" width="80" height="50" as="geometry"/>
                </mxCell>
                <mxCell id="gqH6trvdXK7VxGjcqmIb-30" value="1" style="text;html=1;align=center;verticalAlign=middle;resizable=0;points=[];autosize=1;strokeColor=none;fillColor=none;" parent="gqH6trvdXK7VxGjcqmIb-1" vertex="1">
                    <mxGeometry x="220" y="440" width="20" height="20" as="geometry"/>
                </mxCell>
                <mxCell id="gqH6trvdXK7VxGjcqmIb-31" value="1" style="text;html=1;align=center;verticalAlign=middle;resizable=0;points=[];autosize=1;strokeColor=none;fillColor=none;" parent="gqH6trvdXK7VxGjcqmIb-1" vertex="1">
                    <mxGeometry x="210" y="250" width="20" height="20" as="geometry"/>
                </mxCell>
                <mxCell id="DpY1jD6nFn3hHSnzRTHS-0" value="a)" style="text;html=1;align=center;verticalAlign=middle;resizable=0;points=[];autosize=1;strokeColor=none;fillColor=none;" parent="gqH6trvdXK7VxGjcqmIb-1" vertex="1">
                    <mxGeometry x="40" y="110" width="30" height="20" as="geometry"/>
                </mxCell>
                <mxCell id="Y_ohE0jeKaLU0sp7-3vk-4" style="edgeStyle=none;html=1;exitX=0.5;exitY=0;exitDx=0;exitDy=0;entryX=1;entryY=0.5;entryDx=0;entryDy=0;endArrow=none;endFill=0;" parent="gqH6trvdXK7VxGjcqmIb-1" source="DpY1jD6nFn3hHSnzRTHS-4" target="gqH6trvdXK7VxGjcqmIb-13" edge="1">
                    <mxGeometry relative="1" as="geometry">
                        <Array as="points">
                            <mxPoint x="730" y="167"/>
                        </Array>
                    </mxGeometry>
                </mxCell>
                <mxCell id="Y_ohE0jeKaLU0sp7-3vk-6" style="edgeStyle=none;html=1;exitX=0;exitY=0.5;exitDx=0;exitDy=0;entryX=1;entryY=0.25;entryDx=0;entryDy=0;endArrow=none;endFill=0;" parent="gqH6trvdXK7VxGjcqmIb-1" source="DpY1jD6nFn3hHSnzRTHS-4" target="gqH6trvdXK7VxGjcqmIb-10" edge="1">
                    <mxGeometry relative="1" as="geometry"/>
                </mxCell>
                <mxCell id="DpY1jD6nFn3hHSnzRTHS-4" value="&lt;&lt;stereotype&gt;&gt;&#10;Verbindungsknoten" style="swimlane;fontStyle=1;align=center;verticalAlign=top;childLayout=stackLayout;horizontal=1;startSize=40;horizontalStack=0;resizeParent=1;resizeParentMax=0;resizeLast=0;collapsible=1;marginBottom=0;" parent="gqH6trvdXK7VxGjcqmIb-1" vertex="1">
                    <mxGeometry x="650" y="320" width="160" height="48" as="geometry"/>
                </mxCell>
                <mxCell id="DpY1jD6nFn3hHSnzRTHS-6" value="" style="line;strokeWidth=1;fillColor=none;align=left;verticalAlign=middle;spacingTop=-1;spacingLeft=3;spacingRight=3;rotatable=0;labelPosition=right;points=[];portConstraint=eastwest;" parent="DpY1jD6nFn3hHSnzRTHS-4" vertex="1">
                    <mxGeometry y="40" width="160" height="8" as="geometry"/>
                </mxCell>
                <mxCell id="Y_ohE0jeKaLU0sp7-3vk-7" style="edgeStyle=none;html=1;exitX=0.5;exitY=0;exitDx=0;exitDy=0;entryX=0.5;entryY=1;entryDx=0;entryDy=0;endArrow=none;endFill=0;" parent="gqH6trvdXK7VxGjcqmIb-1" source="DpY1jD6nFn3hHSnzRTHS-7" target="DpY1jD6nFn3hHSnzRTHS-4" edge="1">
                    <mxGeometry relative="1" as="geometry"/>
                </mxCell>
                <mxCell id="DpY1jD6nFn3hHSnzRTHS-7" value="&lt;&lt;stereotype&gt;&gt;&#10;Verzwegungsknoten" style="swimlane;fontStyle=1;align=center;verticalAlign=top;childLayout=stackLayout;horizontal=1;startSize=40;horizontalStack=0;resizeParent=1;resizeParentMax=0;resizeLast=0;collapsible=1;marginBottom=0;" parent="gqH6trvdXK7VxGjcqmIb-1" vertex="1">
                    <mxGeometry x="650" y="453" width="160" height="48" as="geometry"/>
                </mxCell>
                <mxCell id="DpY1jD6nFn3hHSnzRTHS-9" value="" style="line;strokeWidth=1;fillColor=none;align=left;verticalAlign=middle;spacingTop=-1;spacingLeft=3;spacingRight=3;rotatable=0;labelPosition=right;points=[];portConstraint=eastwest;" parent="DpY1jD6nFn3hHSnzRTHS-7" vertex="1">
                    <mxGeometry y="40" width="160" height="8" as="geometry"/>
                </mxCell>
                <mxCell id="9" style="edgeStyle=none;html=1;entryX=1;entryY=1;entryDx=0;entryDy=0;endArrow=none;endFill=0;" edge="1" parent="gqH6trvdXK7VxGjcqmIb-1" source="Y_ohE0jeKaLU0sp7-3vk-14" target="gqH6trvdXK7VxGjcqmIb-10">
                    <mxGeometry relative="1" as="geometry">
                        <Array as="points">
                            <mxPoint x="464" y="477"/>
                        </Array>
                    </mxGeometry>
                </mxCell>
                <mxCell id="10" style="edgeStyle=none;html=1;entryX=0;entryY=0.5;entryDx=0;entryDy=0;endArrow=none;endFill=0;" edge="1" parent="gqH6trvdXK7VxGjcqmIb-1" source="Y_ohE0jeKaLU0sp7-3vk-14" target="DpY1jD6nFn3hHSnzRTHS-7">
                    <mxGeometry relative="1" as="geometry"/>
                </mxCell>
                <mxCell id="Y_ohE0jeKaLU0sp7-3vk-14" value="" style="triangle;aspect=fixed;fillColor=#000000;rotation=-180;" parent="gqH6trvdXK7VxGjcqmIb-1" vertex="1">
                    <mxGeometry x="560" y="471" width="6" height="12" as="geometry"/>
                </mxCell>
                <mxCell id="Y_ohE0jeKaLU0sp7-3vk-18" value="eingehender&lt;br/&gt;&lt;br&gt;Kontrollfluss" style="text;html=1;align=center;verticalAlign=middle;resizable=0;points=[];autosize=1;strokeColor=none;fillColor=none;" parent="gqH6trvdXK7VxGjcqmIb-1" vertex="1">
                    <mxGeometry x="520" y="488" width="80" height="50" as="geometry"/>
                </mxCell>
                <mxCell id="Y_ohE0jeKaLU0sp7-3vk-19" value="" style="triangle;aspect=fixed;fillColor=#000000;rotation=-90;" parent="gqH6trvdXK7VxGjcqmIb-1" vertex="1">
                    <mxGeometry x="727" y="398" width="6" height="12" as="geometry"/>
                </mxCell>
                <mxCell id="Y_ohE0jeKaLU0sp7-3vk-22" value="ausgehender&lt;br/&gt;&lt;br&gt;Kontrollfluss" style="text;html=1;align=center;verticalAlign=middle;resizable=0;points=[];autosize=1;strokeColor=none;fillColor=none;" parent="gqH6trvdXK7VxGjcqmIb-1" vertex="1">
                    <mxGeometry x="737" y="379" width="90" height="50" as="geometry"/>
                </mxCell>
                <mxCell id="Y_ohE0jeKaLU0sp7-3vk-23" value="" style="triangle;aspect=fixed;fillColor=#000000;rotation=-180;" parent="gqH6trvdXK7VxGjcqmIb-1" vertex="1">
                    <mxGeometry x="610" y="161" width="6" height="12" as="geometry"/>
                </mxCell>
                <mxCell id="Y_ohE0jeKaLU0sp7-3vk-25" value="eingehender&lt;br/&gt;&lt;br&gt;Kontrollfluss" style="text;html=1;align=center;verticalAlign=middle;resizable=0;points=[];autosize=1;strokeColor=none;fillColor=none;" parent="gqH6trvdXK7VxGjcqmIb-1" vertex="1">
                    <mxGeometry x="523" y="360" width="80" height="50" as="geometry"/>
                </mxCell>
                <mxCell id="Y_ohE0jeKaLU0sp7-3vk-27" value="" style="triangle;aspect=fixed;fillColor=#000000;rotation=-181;" parent="gqH6trvdXK7VxGjcqmIb-1" vertex="1">
                    <mxGeometry x="560" y="338" width="6" height="12" as="geometry"/>
                </mxCell>
                <mxCell id="Y_ohE0jeKaLU0sp7-3vk-28" value="ausgehender&lt;br/&gt;&lt;br&gt;Kontrollfluss" style="text;html=1;align=center;verticalAlign=middle;resizable=0;points=[];autosize=1;strokeColor=none;fillColor=none;" parent="gqH6trvdXK7VxGjcqmIb-1" vertex="1">
                    <mxGeometry x="568" y="110" width="90" height="50" as="geometry"/>
                </mxCell>
                <mxCell id="0" value="1" style="text;html=1;align=center;verticalAlign=middle;resizable=0;points=[];autosize=1;strokeColor=none;fillColor=none;" vertex="1" parent="gqH6trvdXK7VxGjcqmIb-1">
                    <mxGeometry x="470" y="140" width="20" height="20" as="geometry"/>
                </mxCell>
                <mxCell id="1" value="1" style="text;html=1;align=center;verticalAlign=middle;resizable=0;points=[];autosize=1;strokeColor=none;fillColor=none;" vertex="1" parent="gqH6trvdXK7VxGjcqmIb-1">
                    <mxGeometry x="710" y="300" width="20" height="20" as="geometry"/>
                </mxCell>
                <mxCell id="2" value="1" style="text;html=1;align=center;verticalAlign=middle;resizable=0;points=[];autosize=1;strokeColor=none;fillColor=none;" vertex="1" parent="gqH6trvdXK7VxGjcqmIb-1">
                    <mxGeometry x="710" y="370" width="20" height="20" as="geometry"/>
                </mxCell>
                <mxCell id="3" value="1" style="text;html=1;align=center;verticalAlign=middle;resizable=0;points=[];autosize=1;strokeColor=none;fillColor=none;" vertex="1" parent="gqH6trvdXK7VxGjcqmIb-1">
                    <mxGeometry x="710" y="420" width="20" height="20" as="geometry"/>
                </mxCell>
                <mxCell id="4" value="0..n" style="text;html=1;align=center;verticalAlign=middle;resizable=0;points=[];autosize=1;strokeColor=none;fillColor=none;" vertex="1" parent="gqH6trvdXK7VxGjcqmIb-1">
                    <mxGeometry x="600" y="460" width="40" height="20" as="geometry"/>
                </mxCell>
                <mxCell id="5" value="1" style="text;html=1;align=center;verticalAlign=middle;resizable=0;points=[];autosize=1;strokeColor=none;fillColor=none;" vertex="1" parent="gqH6trvdXK7VxGjcqmIb-1">
                    <mxGeometry x="440" y="380" width="20" height="20" as="geometry"/>
                </mxCell>
                <mxCell id="6" value="1" style="text;html=1;align=center;verticalAlign=middle;resizable=0;points=[];autosize=1;strokeColor=none;fillColor=none;" vertex="1" parent="gqH6trvdXK7VxGjcqmIb-1">
                    <mxGeometry x="470" y="320" width="20" height="20" as="geometry"/>
                </mxCell>
                <mxCell id="7" value="1..n" style="text;html=1;align=center;verticalAlign=middle;resizable=0;points=[];autosize=1;strokeColor=none;fillColor=none;" vertex="1" parent="gqH6trvdXK7VxGjcqmIb-1">
                    <mxGeometry x="600" y="320" width="40" height="20" as="geometry"/>
                </mxCell>
            </root>
        </mxGraphModel>
    </diagram>
    <diagram id="KgSuFZaWL4HGiCK_zL0_" name="Seite-2">
        <mxGraphModel dx="864" dy="545" grid="1" gridSize="10" guides="1" tooltips="1" connect="1" arrows="1" fold="1" page="1" pageScale="1" pageWidth="827" pageHeight="1169" math="0" shadow="0">
            <root>
                <mxCell id="0"/>
                <mxCell id="1" parent="0"/>
                <mxCell id="uo5PhY14mAuvYLFhVyWv-59" style="edgeStyle=orthogonalEdgeStyle;html=1;exitX=1;exitY=0.5;exitDx=0;exitDy=0;entryX=0;entryY=0.5;entryDx=0;entryDy=0;endArrow=none;endFill=0;" parent="1" source="3" target="uo5PhY14mAuvYLFhVyWv-55" edge="1">
                    <mxGeometry relative="1" as="geometry"/>
                </mxCell>
                <mxCell id="3" value="&lt;&lt;stereotype&gt;&gt;&#10;Satrtzustand" style="swimlane;fontStyle=1;align=center;verticalAlign=top;childLayout=stackLayout;horizontal=1;startSize=40;horizontalStack=0;resizeParent=1;resizeParentMax=0;resizeLast=0;collapsible=1;marginBottom=0;" parent="1" vertex="1">
                    <mxGeometry x="70" y="480" width="170" height="48" as="geometry"/>
                </mxCell>
                <mxCell id="5" value="" style="line;strokeWidth=1;fillColor=none;align=left;verticalAlign=middle;spacingTop=-1;spacingLeft=3;spacingRight=3;rotatable=0;labelPosition=right;points=[];portConstraint=eastwest;" parent="3" vertex="1">
                    <mxGeometry y="40" width="170" height="8" as="geometry"/>
                </mxCell>
                <mxCell id="50" style="edgeStyle=orthogonalEdgeStyle;html=1;exitX=0;exitY=0.5;exitDx=0;exitDy=0;entryX=1;entryY=0.5;entryDx=0;entryDy=0;endArrow=classic;endFill=1;" parent="1" source="47" target="8" edge="1">
                    <mxGeometry relative="1" as="geometry"/>
                </mxCell>
                <mxCell id="8" value="&lt;&lt;stereotype&gt;&gt;&#10;Endzustand" style="swimlane;fontStyle=1;align=center;verticalAlign=top;childLayout=stackLayout;horizontal=1;startSize=40;horizontalStack=0;resizeParent=1;resizeParentMax=0;resizeLast=0;collapsible=1;marginBottom=0;" parent="1" vertex="1">
                    <mxGeometry x="70" y="670" width="170" height="48" as="geometry"/>
                </mxCell>
                <mxCell id="9" value="" style="line;strokeWidth=1;fillColor=none;align=left;verticalAlign=middle;spacingTop=-1;spacingLeft=3;spacingRight=3;rotatable=0;labelPosition=right;points=[];portConstraint=eastwest;" parent="8" vertex="1">
                    <mxGeometry y="40" width="170" height="8" as="geometry"/>
                </mxCell>
                <mxCell id="41" style="edgeStyle=orthogonalEdgeStyle;html=1;exitX=1;exitY=0.5;exitDx=0;exitDy=0;entryX=1;entryY=0.5;entryDx=0;entryDy=0;endArrow=none;endFill=0;" parent="1" source="10" target="36" edge="1">
                    <mxGeometry relative="1" as="geometry"/>
                </mxCell>
                <mxCell id="52" style="edgeStyle=orthogonalEdgeStyle;html=1;entryX=1;entryY=0.5;entryDx=0;entryDy=0;endArrow=none;endFill=0;" parent="1" source="10" target="47" edge="1">
                    <mxGeometry relative="1" as="geometry">
                        <Array as="points">
                            <mxPoint x="420" y="694"/>
                        </Array>
                    </mxGeometry>
                </mxCell>
                <mxCell id="10" value="&lt;&lt;stereotype&gt;&gt;&#10;Kontrollflusspfad" style="swimlane;fontStyle=1;align=center;verticalAlign=top;childLayout=stackLayout;horizontal=1;startSize=42;horizontalStack=0;resizeParent=1;resizeParentMax=0;resizeLast=0;collapsible=1;marginBottom=0;" parent="1" vertex="1">
                    <mxGeometry x="334" y="560" width="160" height="50" as="geometry">
                        <mxRectangle x="334" y="560" width="130" height="42" as="alternateBounds"/>
                    </mxGeometry>
                </mxCell>
                <mxCell id="12" value="" style="line;strokeWidth=1;fillColor=none;align=left;verticalAlign=middle;spacingTop=-1;spacingLeft=3;spacingRight=3;rotatable=0;labelPosition=right;points=[];portConstraint=eastwest;" parent="10" vertex="1">
                    <mxGeometry y="42" width="160" height="8" as="geometry"/>
                </mxCell>
                <mxCell id="21" value="&lt;&lt;stereotype&gt;&gt;&#10;Aktion" style="swimlane;fontStyle=1;align=center;verticalAlign=top;childLayout=stackLayout;horizontal=1;startSize=40;horizontalStack=0;resizeParent=1;resizeParentMax=0;resizeLast=0;collapsible=1;marginBottom=0;" parent="1" vertex="1">
                    <mxGeometry x="334" y="360" width="160" height="74" as="geometry"/>
                </mxCell>
                <mxCell id="22" value="Aktion 1" style="text;strokeColor=none;fillColor=none;align=left;verticalAlign=top;spacingLeft=4;spacingRight=4;overflow=hidden;rotatable=0;points=[[0,0.5],[1,0.5]];portConstraint=eastwest;" parent="21" vertex="1">
                    <mxGeometry y="40" width="160" height="26" as="geometry"/>
                </mxCell>
                <mxCell id="23" value="" style="line;strokeWidth=1;fillColor=none;align=left;verticalAlign=middle;spacingTop=-1;spacingLeft=3;spacingRight=3;rotatable=0;labelPosition=right;points=[];portConstraint=eastwest;" parent="21" vertex="1">
                    <mxGeometry y="66" width="160" height="8" as="geometry"/>
                </mxCell>
                <mxCell id="30" value="" style="endArrow=classicThin;html=1;rounded=0;align=center;verticalAlign=bottom;labelBackgroundColor=none;exitX=1;exitY=0.5;exitDx=0;exitDy=0;entryX=0.5;entryY=0;entryDx=0;entryDy=0;startArrow=none;endFill=1;" parent="1" source="29" target="10" edge="1">
                    <mxGeometry relative="1" as="geometry">
                        <mxPoint x="370" y="510" as="sourcePoint"/>
                        <mxPoint x="510" y="510" as="targetPoint"/>
                    </mxGeometry>
                </mxCell>
                <mxCell id="29" value="" style="triangle;aspect=fixed;fillColor=#000000;rotation=90;" parent="1" vertex="1">
                    <mxGeometry x="411" y="498" width="6" height="12" as="geometry"/>
                </mxCell>
                <mxCell id="32" value="" style="endArrow=none;html=1;rounded=0;align=center;verticalAlign=bottom;labelBackgroundColor=none;exitX=0.5;exitY=1;exitDx=0;exitDy=0;entryX=0;entryY=0.5;entryDx=0;entryDy=0;" parent="1" source="21" target="29" edge="1">
                    <mxGeometry relative="1" as="geometry">
                        <mxPoint x="414" y="434.0000000000001" as="sourcePoint"/>
                        <mxPoint x="414" y="560" as="targetPoint"/>
                    </mxGeometry>
                </mxCell>
                <mxCell id="33" style="edgeStyle=orthogonalEdgeStyle;html=1;exitX=0.5;exitY=1;exitDx=0;exitDy=0;entryX=1.1;entryY=0.422;entryDx=0;entryDy=0;entryPerimeter=0;endArrow=none;endFill=0;" parent="1" source="29" target="29" edge="1">
                    <mxGeometry relative="1" as="geometry"/>
                </mxCell>
                <mxCell id="34" value="ausgehender&lt;br/&gt;&lt;br&gt;Kontrollfluss" style="text;html=1;align=center;verticalAlign=middle;resizable=0;points=[];autosize=1;strokeColor=none;fillColor=none;" parent="1" vertex="1">
                    <mxGeometry x="310" y="478" width="90" height="50" as="geometry"/>
                </mxCell>
                <mxCell id="35" value="1" style="text;html=1;align=center;verticalAlign=middle;resizable=0;points=[];autosize=1;strokeColor=none;fillColor=none;" parent="1" vertex="1">
                    <mxGeometry x="421" y="434" width="20" height="20" as="geometry"/>
                </mxCell>
                <mxCell id="uo5PhY14mAuvYLFhVyWv-62" style="edgeStyle=orthogonalEdgeStyle;html=1;entryX=1;entryY=0.5;entryDx=0;entryDy=0;endArrow=classic;endFill=1;" parent="1" source="36" target="21" edge="1">
                    <mxGeometry relative="1" as="geometry">
                        <Array as="points">
                            <mxPoint x="563" y="397"/>
                        </Array>
                    </mxGeometry>
                </mxCell>
                <mxCell id="36" value="" style="triangle;aspect=fixed;fillColor=#000000;rotation=90;" parent="1" vertex="1">
                    <mxGeometry x="560" y="497" width="6" height="12" as="geometry"/>
                </mxCell>
                <mxCell id="42" value="eingehender&lt;br/&gt;&lt;br&gt;Kontrollfluss" style="text;html=1;align=center;verticalAlign=middle;resizable=0;points=[];autosize=1;strokeColor=none;fillColor=none;" parent="1" vertex="1">
                    <mxGeometry x="570" y="478" width="80" height="50" as="geometry"/>
                </mxCell>
                <mxCell id="43" value="0..1" style="text;html=1;align=center;verticalAlign=middle;resizable=0;points=[];autosize=1;strokeColor=none;fillColor=none;" parent="1" vertex="1">
                    <mxGeometry x="490" y="590" width="40" height="20" as="geometry"/>
                </mxCell>
                <mxCell id="44" value="1" style="text;html=1;align=center;verticalAlign=middle;resizable=0;points=[];autosize=1;strokeColor=none;fillColor=none;" parent="1" vertex="1">
                    <mxGeometry x="420" y="540" width="20" height="20" as="geometry"/>
                </mxCell>
                <mxCell id="45" value="0..1" style="text;html=1;align=center;verticalAlign=middle;resizable=0;points=[];autosize=1;strokeColor=none;fillColor=none;" parent="1" vertex="1">
                    <mxGeometry x="494" y="370" width="40" height="20" as="geometry"/>
                </mxCell>
                <mxCell id="46" value="1" style="text;html=1;align=center;verticalAlign=middle;resizable=0;points=[];autosize=1;strokeColor=none;fillColor=none;" parent="1" vertex="1">
                    <mxGeometry x="420" y="610" width="20" height="20" as="geometry"/>
                </mxCell>
                <mxCell id="47" value="" style="triangle;aspect=fixed;fillColor=#000000;" parent="1" vertex="1">
                    <mxGeometry x="320" y="688" width="6" height="12" as="geometry"/>
                </mxCell>
                <mxCell id="53" value="eingehender&lt;br/&gt;&lt;br&gt;Kontrollfluss" style="text;html=1;align=center;verticalAlign=middle;resizable=0;points=[];autosize=1;strokeColor=none;fillColor=none;" parent="1" vertex="1">
                    <mxGeometry x="283" y="700" width="80" height="50" as="geometry"/>
                </mxCell>
                <mxCell id="54" value="1" style="text;html=1;align=center;verticalAlign=middle;resizable=0;points=[];autosize=1;strokeColor=none;fillColor=none;" parent="1" vertex="1">
                    <mxGeometry x="250" y="670" width="20" height="20" as="geometry"/>
                </mxCell>
                <mxCell id="uo5PhY14mAuvYLFhVyWv-54" value="1" style="text;html=1;align=center;verticalAlign=middle;resizable=0;points=[];autosize=1;strokeColor=none;fillColor=none;" parent="1" vertex="1">
                    <mxGeometry x="250" y="480" width="20" height="20" as="geometry"/>
                </mxCell>
                <mxCell id="uo5PhY14mAuvYLFhVyWv-58" style="edgeStyle=orthogonalEdgeStyle;html=1;exitX=1;exitY=0.5;exitDx=0;exitDy=0;entryX=0;entryY=0.5;entryDx=0;entryDy=0;endArrow=classic;endFill=1;" parent="1" source="uo5PhY14mAuvYLFhVyWv-55" target="10" edge="1">
                    <mxGeometry relative="1" as="geometry"/>
                </mxCell>
                <mxCell id="uo5PhY14mAuvYLFhVyWv-55" value="" style="triangle;aspect=fixed;fillColor=#000000;rotation=90;" parent="1" vertex="1">
                    <mxGeometry x="283" y="548" width="6" height="12" as="geometry"/>
                </mxCell>
                <mxCell id="uo5PhY14mAuvYLFhVyWv-60" value="ausgehender&lt;br/&gt;&lt;br&gt;Kontrollfluss" style="text;html=1;align=center;verticalAlign=middle;resizable=0;points=[];autosize=1;strokeColor=none;fillColor=none;" parent="1" vertex="1">
                    <mxGeometry x="190" y="535" width="90" height="50" as="geometry"/>
                </mxCell>
                <mxCell id="uo5PhY14mAuvYLFhVyWv-69" value="1" style="text;html=1;align=center;verticalAlign=middle;resizable=0;points=[];autosize=1;strokeColor=none;fillColor=none;" parent="1" vertex="1">
                    <mxGeometry x="310" y="560" width="20" height="20" as="geometry"/>
                </mxCell>
                <mxCell id="uo5PhY14mAuvYLFhVyWv-70" value="(b)" style="text;html=1;align=center;verticalAlign=middle;resizable=0;points=[];autosize=1;strokeColor=none;fillColor=none;" parent="1" vertex="1">
                    <mxGeometry x="35" y="260" width="30" height="20" as="geometry"/>
                </mxCell>
            </root>
        </mxGraphModel>
    </diagram>
</mxfile>